/* XPM */
static char *_6ad356253984c86b8a42dda2e0b4329jk1M4TzZnfQa3VpM[] = {
/* columns rows colors chars-per-pixel */
"48 58 152 2 ",
"   c None",
".  c #000101",
"X  c #0D0000",
"o  c #0D0C0C",
"O  c #130502",
"+  c #1B0000",
"@  c #02191D",
"#  c #101111",
"$  c #1D1412",
"%  c #1E1E1E",
"&  c #240100",
"*  c #2B0200",
"=  c #310100",
"-  c #3B0200",
";  c #360F04",
":  c #3F0A00",
">  c #24110F",
",  c #2E120B",
"<  c #341107",
"1  c #3C1204",
"2  c #33130B",
"3  c #3C170D",
"4  c #3D1A0F",
"5  c #251510",
"6  c #2C1410",
"7  c #291A15",
"8  c #211B18",
"9  c #2D1B19",
"0  c #331B14",
"q  c #3C1D14",
"w  c #2A221F",
"e  c #3C221B",
"r  c #1F2020",
"t  c #242424",
"y  c #272828",
"u  c #2B2C2C",
"i  c #312422",
"p  c #3C2A23",
"a  c #332E2E",
"s  c #333434",
"d  c #373838",
"f  c #3B3C3C",
"g  c #400C00",
"h  c #441101",
"j  c #4E1200",
"k  c #421609",
"l  c #44190C",
"z  c #4B1B0C",
"x  c #521701",
"c  c #541905",
"v  c #531D0C",
"b  c #421D13",
"n  c #491E10",
"m  c #452116",
"M  c #422219",
"N  c #4C261A",
"B  c #532112",
"V  c #5A2516",
"C  c #55271A",
"Z  c #55281B",
"A  c #5D291B",
"S  c #622E1E",
"D  c #492D24",
"F  c #542E23",
"G  c #553025",
"H  c #5C362A",
"J  c #433B39",
"K  c #553A33",
"L  c #5C3F36",
"P  c #573F39",
"I  c #612E20",
"U  c #643123",
"Y  c #62362A",
"T  c #63392C",
"R  c #6D3C2D",
"E  c #723D2D",
"W  c #783B28",
"Q  c #643D31",
"!  c #6F3F31",
"~  c #733F30",
"^  c #58433E",
"/  c #6E4234",
"(  c #734334",
")  c #7A4433",
"_  c #714739",
"`  c #73483B",
"'  c #7C4B3B",
"]  c #3F4444",
"[  c #444545",
"{  c #474848",
"}  c #4B4C4C",
"|  c #4F5050",
" . c #535353",
".. c #575858",
"X. c #5B5C5C",
"o. c #7B4E40",
"O. c #636464",
"+. c #676868",
"@. c #6B6C6C",
"#. c #6F7070",
"$. c #747474",
"%. c #777878",
"&. c #7B7C7C",
"*. c #824C3B",
"=. c #89513F",
"-. c #845343",
";. c #8B5342",
":. c #895748",
">. c #8C5A4A",
",. c #925847",
"<. c #915948",
"1. c #915A4A",
"2. c #955B49",
"3. c #965D4B",
"4. c #925D4C",
"5. c #995E4C",
"6. c #985F4F",
"7. c #99604F",
"8. c #9A604E",
"9. c #956150",
"0. c #986050",
"q. c #9F6553",
"w. c #9D6655",
"e. c #9F6655",
"r. c #A16755",
"t. c #A26754",
"y. c #A56B5A",
"u. c #7F8080",
"i. c #818282",
"p. c #848484",
"a. c #878888",
"s. c #878888",
"d. c #898A8A",
"f. c #8B8C8C",
"g. c #8F9090",
"h. c #939494",
"j. c #939494",
"k. c #979898",
"l. c #9B9B9B",
"z. c #9C9D9D",
"x. c #9E9F9F",
"c. c #999A9A",
"v. c #9FA0A0",
"b. c #A3A4A4",
"n. c #ACADAD",
"m. c #AFB0B0",
"M. c #B6B7B7",
"N. c #B9BABA",
"B. c #C4C5C5",
"V. c #C7C8C8",
"C. c #CACACA",
"Z. c #D4D4D4",
/* pixels */
"                                                                                      ^ L J     ",
"                                                                                    T W S ) Q   ",
"                                                                                  H E * . Z ;.p ",
"                                                                                  ! M     . =.L ",
"                                                                                T Y       1 ,.K ",
"                                                                                T G     . ) -.  ",
"                                                                                / G     ) ' 7   ",
"                                                                                ( M e ! Y       ",
"                                                                          .   p T G G           ",
"                                                                        b U v - q               ",
"                                                                      e ;.r.8.' B               ",
"                                                                      + 4 Q 4.y.,.l             ",
"                                                                    H ;.( z + -.5.b             ",
"                                                                  m 1.0.;.*.T b T               ",
"                                                                . - g * = U 8.R .               ",
"                                                                e T ` -.Y z 2.Q                 ",
"                                                              q ) *.*.1.-.g ~ 8                 ",
"                                                            . = = & & ~ >.& 2                   ",
"                                                          . H ` o.' < R 1.O                     ",
"                                                          F 3.r.w.q.m S ;..                     ",
"                                                        . v v v V 1.H h M                       ",
"                                                      . q q b b - ;.` .                         ",
"                                                      T :.:.>.:.= *.' .                         ",
"                                                    X V U Y E ;.3 R D                           ",
"                                                  . q b Z m * E m 3                             ",
"                                                  _ 0.9.e.-.; R 0 @                             ",
"                                                N ) ' E ;.-.* I w                               ",
"                                              . & = 1 & A ' < 6                                 ",
"                                              ( -.>.w.' Z ' 0                                   ",
"              } O.+.+.] .                   T ;.;.*.9.-.B ~ i                                   ",
"            f d.a.d.@.} } s .             & B : & & R ' l 6                                     ",
"            i.l.h.#.d } } } { u         . q H / -.H A ) 5                                       ",
"          O.z.l.s.t { @.O.} } | [ t     3 A E :.q./ B R                                         ",
"        u j.z.l.| J u.p.&.$...{ | | d 5 j c j j E R < 5                                         ",
"        i.b.z.@.f i.g.j.a.u.u.+.} } | } a g x c c z .                                           ",
"       .b.z.s.u &.a.j.z.l.g.p.i.$...{ |  .] i h c 2                                             ",
"    o l.b.h.f +.p.g.z.k.k.c.k.a.u.&.+.} {  .| f 9 $                                             ",
"  . i.b.l.X. .s.p.c.k.k.k.k.k.z.h.a.u.$...{ }  .{ d o                                           ",
"  +.n.b.#.[ s.i.k.c.k.k.k.k.k.k.z.k.g.a.&.O.| {  . .{ t                                         ",
"{ ..d.s.} f.p.&.h.c.z.k.k.l.k.k.k.k.k.k.f.p.$.X.{ {  . .d #                                     ",
"s.x.@..  .g.k.f.u.s.g.z.c.k.k.k.k.l.k.l.k.h.a.&.+. .[  . .{ t                                   ",
"$.Z.b.+.@.y @.h.k.p.u.a.h.z.k.k.k.k.k.k.k.z.k.g.s.%.O.{ {  . .}                                 ",
"X.C.l.f.N.h.{ u $.k.h.p.u.f.k.z.k.k.k.k.k.k.z.k.h.f.u.@...f O.s.u                               ",
"t Z.j.p.C.C.M.s.f s &.k.g.u.u.h.z.l.k.k.k.k.k.k.l.k.h.d.@.s @.d. .                              ",
"  &.+.b.C.V.C.V.m.p.[  .a.k.d.&.a.k.z.k.k.k.l.k.k.k.k.h.X.[ p.s.%..                             ",
"      @.M.C.C.N.n.b.j.$.| @.h.h.p.u.g.z.z.k.k.k.k.k.j.p.d %.l.f.O.                              ",
"          i.B.M.$.O.+.+.@.+. .%.k.g.u.s.h.z.k.k.k.l.h.O. .j.b.f..                               ",
"            X.$.| @.%.%.+.O.&.O.| a.k.a.u.d.k.l.k.j.s.d &.z.z.X.                                ",
"              . %.%.X.X.%.%.X.d.p.s +.j.j.u.&.f.j.j.+.} h.b.d.                                  ",
"              % f.b.l.s.X.+.i.X.h.b. .u i.l.f.&.&.s.} $.b.b. .                                  ",
"                u h.b.z.z.$.X.&.+.b.M.s.. X.h.h.f.%.| d.n.p.                                    ",
"                  u %.z.z.b.%.+.O.j.M.C.n. .t %.l.+.O.b.b.[                                     ",
"                      } %.f.b.+.O.M.C.V.C.B.i.f X. .f.n.%.                                      ",
"                            } X.u %.M.C.V.C.C.n.u # b.n.d                                       ",
"                                    d z.B.C.n.%.f.f.@.+.                                        ",
"                                      . %.z.+.j.V.Z.h..                                         ",
"                                          . f.C.M.$.}                                           ",
"                                             .@.                                                "
};
