/* XPM */
static char *_cb4ade5008f4f97d1de103023fc9e0ehpQVOT9Pjulcg5hp[] = {
/* columns rows colors chars-per-pixel */
"48 58 135 2 ",
"   c None",
".  c #000101",
"X  c #0D0000",
"o  c #0D0C0C",
"O  c #130502",
"+  c #1B0000",
"@  c #02191D",
"#  c #101111",
"$  c #1D1412",
"%  c #1E1E1E",
"&  c #240100",
"*  c #2B0200",
"=  c #310100",
"-  c #3B0200",
";  c #360F04",
":  c #3F0A00",
">  c #24110F",
",  c #2E120B",
"<  c #341107",
"1  c #3C1204",
"2  c #33130B",
"3  c #3C170D",
"4  c #3D1A0F",
"5  c #251510",
"6  c #2C1410",
"7  c #291A15",
"8  c #211B18",
"9  c #2D1B19",
"0  c #331B14",
"q  c #3C1D14",
"w  c #2A221F",
"e  c #3C221B",
"r  c #1F2020",
"t  c #242424",
"y  c #272828",
"u  c #2B2C2C",
"i  c #312422",
"p  c #3C2A23",
"a  c #332E2E",
"s  c #333434",
"d  c #373838",
"f  c #3B3C3C",
"g  c #400C00",
"h  c #441101",
"j  c #4E1200",
"k  c #421609",
"l  c #44190C",
"z  c #4B1B0C",
"x  c #521701",
"c  c #541905",
"v  c #531D0C",
"b  c #421D13",
"n  c #491E10",
"m  c #452116",
"M  c #422219",
"N  c #4C261A",
"B  c #532112",
"V  c #5A2516",
"C  c #55271A",
"Z  c #55281B",
"A  c #5D291B",
"S  c #622E1E",
"D  c #492D24",
"F  c #542E23",
"G  c #553025",
"H  c #5C362A",
"J  c #433B39",
"K  c #553A33",
"L  c #5C3F36",
"P  c #573F39",
"I  c #612E20",
"U  c #643123",
"Y  c #62362A",
"T  c #63392C",
"R  c #6D3C2D",
"E  c #723D2D",
"W  c #783B28",
"Q  c #643D31",
"!  c #6F3F31",
"~  c #733F30",
"^  c #58433E",
"/  c #6E4234",
"(  c #734334",
")  c #7A4433",
"_  c #714739",
"`  c #73483B",
"'  c #7C4B3B",
"]  c #3F4444",
"[  c #444545",
"{  c #474848",
"}  c #4B4C4C",
"|  c #4F5050",
" . c #535353",
".. c #575858",
"X. c #5B5C5C",
"o. c #7B4E40",
"O. c #636464",
"+. c #676868",
"@. c #6B6C6C",
"#. c #6F7070",
"$. c #747474",
"%. c #777878",
"&. c #7B7C7C",
"*. c #824C3B",
"=. c #89513F",
"-. c #845343",
";. c #8B5342",
":. c #895748",
">. c #8C5A4A",
",. c #925847",
"<. c #935B4A",
"1. c #995F4E",
"2. c #99604E",
"3. c #956150",
"4. c #9D6453",
"5. c #A16755",
"6. c #A56B5A",
"7. c #7F8080",
"8. c #848484",
"9. c #878888",
"0. c #8B8C8C",
"q. c #8F9090",
"w. c #939494",
"e. c #979898",
"r. c #999A9A",
"t. c #9FA0A0",
"y. c #A3A4A4",
"u. c #ACADAD",
"i. c #AFB0B0",
"p. c #B6B7B7",
"a. c #B9BABA",
"s. c #C4C5C5",
"d. c #C7C8C8",
"f. c #CACACA",
"g. c #D4D4D4",
/* pixels */
"                                                @...                                            ",
"                                          } $.u.f.0..                                           ",
"                                        . q.g.d.w.O.r.&..                                       ",
"                                        +.@.q.0.&.u.d.s.r.d                                     ",
"                                      d u.t.# y u.f.d.d.f.a.$.u ..|                             ",
"                                      &.u.0...X.J 8.s.d.d.f.a.O.#.t.0.$...                      ",
"                                    [ y.y.O.+.r.&.t  .u.f.p.e.O.+.&.t.r.t.%.u                   ",
"                                    8.u.0.} &.0.w.q.X.. 9.p.t.+.&.X.$.t.t.t.w.s                 ",
"                                   .y.t.#.} 8.7.&.0.r.7.u ..y.w.X.7.+...7.e.u.7.%               ",
"                                  0.y.w.} +.w.w.0.7.7.w.e.O.s 8.7.X.7.7.X.O.%.%..               ",
"                                X.t.r.&.d 9.e.r.r.w.0.7.9.r.9.| O.%.O.+.%.%.#.] %.X.            ",
"                              . 0.y.e.} O.w.r.w.r.r.r.w.8.7.q.r.%...+.$.+.+.O.#.p.s.8.          ",
"                              O.0.r.%.d 8.r.r.r.r.w.e.r.r.q.7.8.y.r.#.| $.e.y.u.p.f.f.p.@.      ",
"                            . &.0.8.[ X.q.r.r.w.r.e.r.e.r.r.r.9.7.7.r.7. .[ 8.i.s.d.s.g.y.O.&.  ",
"                               .9.@.a @.9.q.r.r.r.w.r.r.r.w.r.r.7.7.6.w.e.&.d f 0.p.d.d.8.w.g.8 ",
"                              u 8.O.] ..@.7.0.w.r.r.w.r.r.r.e.r.t.t.7.&.8.w.w.$.u } w.a.q.r.f.O.",
"                                }  .| } } O.%.8.0.r.r.r.w.r.w.r.e.r.r.w.8.&.8.w.w.@.y @.O.u.g.$.",
"                                  y {  .| [  .+.&.9.w.r.r.r.r.r.r.w.r.r.r.w.0.&.0.w.0.... +.r.8.",
"                                    # d | ..} } X.$.8.0.w.r.e.w.r.r.r.w.r.r.r.w.&.8.0. .8.0...} ",
"                                        t [  .| } | O.&.9.q.r.r.r.w.r.r.r.w.r.r.&.8.[ $.y.u.O.  ",
"                                          o s }  .} { ..$.8.8.w.r.e.w.r.r.r.r.8.0...X.e.y.8..   ",
"                                            $ 9 d | | } } O.&.8.0.w.r.r.r.r.0.8.+.d w.y.r.o     ",
"                                            < x h i [ | } { ..$.8.8.q.r.r.w.9.&.y 8.r.y...      ",
"                                          . z v v x 1 a }  .} } +.&.8.8.w.w.8.f $.r.y.8.        ",
"                                        > < R E j j c j 5 f | | { ..$.&.8.7.] } r.r.r.u         ",
"                                        E B / 5.;.E A k     t [  .} } O.@.[ t 9.r.t.X.          ",
"                                      5 ' A H -./ H q .         y }  .} } d #.w.r.8.            ",
"                                    6 l ) E + & g B &             . a } } +.0.9.0.f             ",
"                                  i E B -.1.*.;.;.T                   . [ +.O.O.}               ",
"                                  0 ' Z o.4.>.:.(                                               ",
"                                , < ' G & 1 = & .                                               ",
"                              w S * -.;.R ' ) N                                                 ",
"                            @ 0 E ; -.4.3.3.(                                                   ",
"                            3 m R * b Z M q .                                                   ",
"                          D R 3 -.~ Y U V O                                                     ",
"                        . ' *.= :.<.:.;.T                                                       ",
"                        . _ ;.- b b q q .                                                       ",
"                      e h H <.V v B v .                                                         ",
"                    . :.A m 4.5.5.1.F                                                           ",
"                    O 1.R 2 ' o.` H .                                                           ",
"                  2 & >.~ & & = = .                                                             ",
"                8 ~ : -.<.*.*.) e                                                               ",
"                Q <.z Y -.` T e                                                                 ",
"              . R 2.U = = - - .                                                                 ",
"              T l T *.;.2.<.M                                                                   ",
"            b 1.:.+ z ( ;.H                                                                     ",
"            k ,.6.>.Q 4 +                                                                       ",
"              B ' 2.5.-.e                                                                       ",
"              q - v U b                                                                         ",
"          G G T p   .                                                                           ",
"      T ! e M (                                                                                 ",
"  7 ' )     F !                                                                                 ",
"  =.' .     G T                                                                                 ",
"K <.:       Y T                                                                                 ",
"^ =..     M Q                                                                                   ",
"p =.Z . * E T                                                                                   ",
"  Q ) S W T                                                                                     ",
"    J L ^                                                                                       "
};
