/* XPM */
static char *_c5a54480b6a475282003dfa97945df9JZSJ2xsaPW9cUmBu[] = {
/* columns rows colors chars-per-pixel */
"58 48 157 2 ",
"   c None",
".  c #000101",
"X  c #0D0000",
"o  c #0D0C0C",
"O  c #130502",
"+  c #1B0000",
"@  c #02191D",
"#  c #101111",
"$  c #1D1412",
"%  c #1E1E1E",
"&  c #240100",
"*  c #2B0200",
"=  c #310100",
"-  c #3B0200",
";  c #360F04",
":  c #3F0A00",
">  c #24110F",
",  c #2E120B",
"<  c #341107",
"1  c #3C1204",
"2  c #33130B",
"3  c #3C170D",
"4  c #3D1A0F",
"5  c #251510",
"6  c #2C1410",
"7  c #291A15",
"8  c #211B18",
"9  c #2D1B19",
"0  c #331B14",
"q  c #3C1D14",
"w  c #2A221F",
"e  c #3C221B",
"r  c #1F2020",
"t  c #242424",
"y  c #272828",
"u  c #2B2C2C",
"i  c #312422",
"p  c #3C2A23",
"a  c #332E2E",
"s  c #333434",
"d  c #373838",
"f  c #3B3C3C",
"g  c #400C00",
"h  c #441101",
"j  c #4E1200",
"k  c #421609",
"l  c #44190C",
"z  c #4B1B0C",
"x  c #521701",
"c  c #541905",
"v  c #531D0C",
"b  c #421D13",
"n  c #491E10",
"m  c #452116",
"M  c #422219",
"N  c #4C261A",
"B  c #532112",
"V  c #5A2516",
"C  c #55271A",
"Z  c #55281B",
"A  c #5D291B",
"S  c #622E1E",
"D  c #492D24",
"F  c #542E23",
"G  c #553025",
"H  c #5C362A",
"J  c #433B39",
"K  c #553A33",
"L  c #5C3F36",
"P  c #573F39",
"I  c #612E20",
"U  c #643123",
"Y  c #62362A",
"T  c #63392C",
"R  c #6D3C2D",
"E  c #723D2D",
"W  c #783B28",
"Q  c #643D31",
"!  c #6F3F31",
"~  c #733F30",
"^  c #58433E",
"/  c #6E4234",
"(  c #734334",
")  c #7A4433",
"_  c #714739",
"`  c #73483B",
"'  c #7C4B3B",
"]  c #3F4444",
"[  c #444545",
"{  c #474848",
"}  c #4B4C4C",
"|  c #4F5050",
" . c #535353",
".. c #575858",
"X. c #5B5C5C",
"o. c #7B4E40",
"O. c #636464",
"+. c #676868",
"@. c #6B6C6C",
"#. c #6F7070",
"$. c #747474",
"%. c #777878",
"&. c #7B7C7C",
"*. c #824C3B",
"=. c #89513F",
"-. c #845343",
";. c #8B5342",
":. c #895748",
">. c #8C5A4A",
",. c #925847",
"<. c #935B4A",
"1. c #995F4E",
"2. c #99604E",
"3. c #956150",
"4. c #9D6453",
"5. c #A16755",
"6. c #A56B5A",
"7. c #7F8080",
"8. c #848484",
"9. c #878888",
"0. c #898A8A",
"q. c #8B8C8C",
"w. c #8C8D8D",
"e. c #8D8E8E",
"r. c #8E8F8F",
"t. c #8B8C8C",
"y. c #8F9090",
"u. c #909191",
"i. c #919292",
"p. c #939494",
"a. c #959696",
"s. c gray59",
"d. c #949494",
"f. c #979898",
"g. c #989999",
"h. c #9A9B9B",
"j. c #9D9E9E",
"k. c #999A9A",
"l. c #9FA0A0",
"z. c #9FA0A0",
"x. c #A0A1A1",
"c. c #A1A2A2",
"v. c #A2A3A3",
"b. c #A5A6A6",
"n. c #A6A7A7",
"m. c #A3A4A4",
"M. c #AAABAB",
"N. c #ABACAC",
"B. c #ADAEAE",
"V. c #ACADAD",
"C. c #AFB0B0",
"Z. c #B6B7B7",
"A. c #B9BABA",
"S. c #C4C5C5",
"D. c #C7C8C8",
"F. c #CACACA",
"G. c #D4D4D4",
/* pixels */
"    p L K                                                                                                           ",
"  Q ;.=.<.-.7                                                                                                       ",
"J ) Z . 1 ) )                                                                                                       ",
"P S .     . ) T                                                                                                     ",
"^ W *         !                                                                                                     ",
"  T E e       e G                                                                                                   ",
"    T R Y G F M G     k b                                                                                           ",
"        Y T / ) T q B ;.1.T .                                                                                       ",
"                p - ' 6.-.b R Q 8                                                                                   ",
"                  v 2.<.+ T 2.<.~ 2                                                                                 ",
"                . U 5.Q n *.U z g * O .                                                                             ",
"                  b ;.4 ( ;.= T -.>.<.-.M                                                                           ",
"                    e + -.1.= -.<.~ R S h . .                                                                       ",
"                        H ,.- ` *.& , m H _ ' D                                                                     ",
"                          M - T *.& ' 4.<.;.*.R 3 @                                     .                           ",
"                            . M ) = o.4.V - = 3 m 0 w                               u  .%.O..                       ",
"                                q = _ 5.v b :.;.R R S ,                           } 9.0.9.r.r.X.                    ",
"                                  . H 1.v b >.~ * ; * < 0 i                     t  .O.@.9.h.c.j.0. .                ",
"                                    . F v q :.Y m -.-.' ' E 6                 o }  .f s [ $.a.j.n.n.9.[             ",
"                                        . q ;.U N 5.;.I C B l 5               f  .} ..@.X.s  .%.u.l.N.c.%.f         ",
"                                          . T V m 3.R & ' -.' ) R >         t  .| } @.0.u.9.O.f } $.0.c.B.M.+..     ",
"                                              X q 3.' 1 4.2.E A B < .     o [  .[ O.7.u.h.a.p.9.+.}  .O.q.c.@.r.}   ",
"                                                . ( ) = >.*.+ H / R l < $ s  .}  .$.q.f.h.h.h.a.p.9.%.+...# r.G.$.  ",
"                                                    N * :.;.* -.4.E c x 9 }  .} +.9.a.h.f.f.f.h.a.&.r.h.X.u r.D.B.  ",
"                                                      . / ;.: _ ;.j c h f  .{ X.&.r.h.f.h.h.f.h.q.&.u.%.f M.%.a.F.+.",
"                                                          T B H E j x i | } | $.0.a.h.f.h.h.h.f.&.r.u.t 8.F.M.+.r...",
"                                                            & q A c h ]  .} +.8.u.h.f.h.h.f.h.0.8.h.X. .S.F.F.h..   ",
"                                                              . 3 j a | } ..&.q.h.h.h.h.f.h.a.&.a.8.. B.F.D.D.%.    ",
"                                                                  > } } } $.9.a.h.f.h.h.f.h.9.0.a.u 9.F.D.F.j..     ",
"                                                                  f  .} +.8.r.h.f.h.h.f.h.u.7.h.+...Z.Z.F.A.f       ",
"                                                                t  .} ..&.9.h.h.f.h.f.h.h.7.u.9.s c.c.h.A.$.        ",
"                                                                [ | } $.8.u.h.f.h.h.f.h.0.8.f.} 9.p.+.O.O.u         ",
"                                                              u  .{ +.8.0.h.f.h.h.a.h.u.&.a.$.O.0.X.%.+.@.X.        ",
"                                                            . } } ..&.8.a.h.f.f.f.h.h.8.0.u...&.X.8.X.&.m.}         ",
"                                                            s | } $.8.y.h.f.h.h.f.h.0.7.h.@.+.O.%.+.$.n.0.          ",
"                                                          . } } O.7.9.h.f.h.h.f.h.a.&.u.0.} @.+.%.X.j.j.$.          ",
"                                                          f } } +.8.a.h.f.h.h.h.h.9.8.h. .$.+.%.X.9.j.h.}           ",
"                                                          +.@.d [ 7.y.a.h.h.a.h.u.&.a.&.[ a.+.$.O.a.l.%.            ",
"                                                          +.0.#.t f 8.0.r.h.h.h.9.9.a.s 8.c.O.#.$.n.u.u             ",
"                                                          O.9.p.9.} f %.9.9.a.p.&.a.$.f B.B.$.} $.r.u               ",
"                                                          } 9.h.j.f.#.u +.9.7.&.0.u.u 0.F.A.Z.$.. %                 ",
"                                                            f 8.j.j.h.9.f ..9.8.a.+.} Z.F.F.S.X.                    ",
"                                                                X.a.c.j.u.X.[ r.u.y u.F.D.F.8.                      ",
"                                                                  u 8.m.c.h.$.} ..+.A.F.G.C.                        ",
"                                                                      ..h.n.c.9.. +.r.8.c.@.                        ",
"                                                                        o 8.B.0.+.n.h.a.+.                          ",
"                                                                          . +...j.G.F.G.&.                          ",
"                                                                              } 9.$.X.r                             "
};
