/* XPM */
static char *_1f56ce07f1c492689335a20eab4e879e0po3Fc0TY2ydhVV[] = {
/* columns rows colors chars-per-pixel */
"58 48 135 2 ",
"   c None",
".  c #000101",
"X  c #0D0000",
"o  c #0D0C0C",
"O  c #130502",
"+  c #1B0000",
"@  c #02191D",
"#  c #101111",
"$  c #1D1412",
"%  c #1E1E1E",
"&  c #240100",
"*  c #2B0200",
"=  c #310100",
"-  c #3B0200",
";  c #360F04",
":  c #3F0A00",
">  c #24110F",
",  c #2E120B",
"<  c #341107",
"1  c #3C1204",
"2  c #33130B",
"3  c #3C170D",
"4  c #3D1A0F",
"5  c #251510",
"6  c #2C1410",
"7  c #291A15",
"8  c #211B18",
"9  c #2D1B19",
"0  c #331B14",
"q  c #3C1D14",
"w  c #2A221F",
"e  c #3C221B",
"r  c #1F2020",
"t  c #242424",
"y  c #272828",
"u  c #2B2C2C",
"i  c #312422",
"p  c #3C2A23",
"a  c #332E2E",
"s  c #333434",
"d  c #373838",
"f  c #3B3C3C",
"g  c #400C00",
"h  c #441101",
"j  c #4E1200",
"k  c #421609",
"l  c #44190C",
"z  c #4B1B0C",
"x  c #521701",
"c  c #541905",
"v  c #531D0C",
"b  c #421D13",
"n  c #491E10",
"m  c #452116",
"M  c #422219",
"N  c #4C261A",
"B  c #532112",
"V  c #5A2516",
"C  c #55271A",
"Z  c #55281B",
"A  c #5D291B",
"S  c #622E1E",
"D  c #492D24",
"F  c #542E23",
"G  c #553025",
"H  c #5C362A",
"J  c #433B39",
"K  c #553A33",
"L  c #5C3F36",
"P  c #573F39",
"I  c #612E20",
"U  c #643123",
"Y  c #62362A",
"T  c #63392C",
"R  c #6D3C2D",
"E  c #723D2D",
"W  c #783B28",
"Q  c #643D31",
"!  c #6F3F31",
"~  c #733F30",
"^  c #58433E",
"/  c #6E4234",
"(  c #734334",
")  c #7A4433",
"_  c #714739",
"`  c #73483B",
"'  c #7C4B3B",
"]  c #3F4444",
"[  c #444545",
"{  c #474848",
"}  c #4B4C4C",
"|  c #4F5050",
" . c #535353",
".. c #575858",
"X. c #5B5C5C",
"o. c #7B4E40",
"O. c #636464",
"+. c #676868",
"@. c #6B6C6C",
"#. c #6F7070",
"$. c #747474",
"%. c #777878",
"&. c #7B7C7C",
"*. c #824C3B",
"=. c #89513F",
"-. c #845343",
";. c #8B5342",
":. c #895748",
">. c #8C5A4A",
",. c #925847",
"<. c #935B4A",
"1. c #995F4E",
"2. c #99604E",
"3. c #956150",
"4. c #9D6453",
"5. c #A16755",
"6. c #A56B5A",
"7. c #7F8080",
"8. c #848484",
"9. c #878888",
"0. c #8B8C8C",
"q. c #8F9090",
"w. c #939494",
"e. c #979898",
"r. c #999A9A",
"t. c #9FA0A0",
"y. c #A3A4A4",
"u. c #ACADAD",
"i. c #AFB0B0",
"p. c #B6B7B7",
"a. c #B9BABA",
"s. c #C4C5C5",
"d. c #C7C8C8",
"f. c #CACACA",
"g. c #D4D4D4",
/* pixels */
"                            t X.$.0.}                                                                               ",
"                          &.g.f.g.r...+..                                                                           ",
"                          +.w.e.y.@.8.u.7.#                                                                         ",
"                        @.y.8.0.+.. 8.y.t.t.X.                                                                      ",
"                        u.g.f.a.@...X.%.r.y.y.7.u                                                                   ",
"                      8.f.d.f.w.y q.7.] X.w.t.y.e.O.                                                                ",
"                    X.s.f.f.p.{ @.e.8.7...] 7.r.t.t.8.f                                                             ",
"                8 . $.p.a.d.0.u w.0.&.6.7.@.y #.e.r.r.9.|                                                           ",
"              u 0.$. .#.u.u.f $.e.7.w.e.8.9.%.f | 9.w.9.O.                                                          ",
"            u w.y.%.@.O.y.8.s e.8.9.e.r.e.q.9.8.f y #.9.+.                                                          ",
"            $.y.e.O.$.+.e.[ %.w.7.w.r.e.e.r.w.q.7.[ d @.@.                                                          ",
"          | r.t.8.X.&.+.$...e.8.9.e.e.r.r.e.r.e.8.@.} } f                                                           ",
"          $.y.r...%.+.@.} 0.w.&.w.r.e.e.e.e.r.9.7.O.} } .                                                           ",
"          0.y.$.+.&.O.+.@.e.8.0.r.e.e.r.e.r.q.7.$.} | a                                                             ",
"        } y.&...8...&...w.0.&.e.r.e.e.e.e.e.8.7...} } .                                                             ",
"        ..@.+.&...0.O.$.w.&.w.e.e.e.r.e.r.0.7.+.{ | u                                                               ",
"        u O.O.+.w.7...y.7.7.r.e.r.r.e.r.w.8.$.} } [                                                                 ",
"        %.p.r.t.y.] 7.7.7.r.r.e.e.e.e.r.8.&...} | t                                                                 ",
"      f p.d.a.p...O.y.7.e.t.e.e.e.e.r.q.7.+.{ | d                                                                   ",
"    . t.d.d.f.7.y e.7.7.r.e.r.e.e.e.e.9.$.} | } >                                                                   ",
"    &.d.d.f.i.o 7.e.7.e.r.e.e.r.e.r.0.&...{ | a j k .                                                               ",
"  . r.f.d.d.] O.r.7.7.r.e.r.e.e.r.w.8.+.{  .[ 1 c A q &                                                             ",
"..0.+.u.f.7.u 7.w.7.r.r.e.r.r.t.e.9.$.| } | i x j E H B T                                                           ",
"@.f.w.%.u.] 7.w.7.7.r.r.r.r.r.y.q.&.X.{  .f g v j ;.( g ;./ .                                                       ",
"  i.d.0.u ..r.q.&.e.e.e.e.e.t.7.8.+.}  .} 9 x v E 4.-.* ;.;.& N                                                     ",
"  #.g.q.# ..+.%.8.w.e.e.e.e.y.7.%. .{  .s $ < n R _ H + *.:.* ) ( .                                                 ",
"  | q.@.y.0.O.| } +.8.w.e.e.q.6.O.[  .[ o     . < B A E 1.4.1 *.2.q X                                               ",
"    . +.u.u.t.0.$.} d O.9.w.9.@.}  . .t         5 R ' ) -.o.& R 3.M V Y .                                           ",
"        d %.y.u.r.w.%.| s ..@...}  .d               5 l B C I ;.5.F U ;.q .                                         ",
"            [ 8.u.y.t.e.%.[ s ] | { o                 6 ! ' ) -.-.n Y :.q v F .                                     ",
"                 .0.r.y.e.9.@.O. .y                     i 0 , * ; * ( >.b v <.H .                                   ",
"                    X.0.0.0.0.8.}                           , S R R ;.-.n v 5.` = q                                 ",
"                      . O.%. .u                               i 0 m 3 * - V 4.o.= ) M .                             ",
"                          .                                     @ 3 R *.;.<.4.o.* *.T - M                           ",
"                                                                    D ' _ H m , & *._ - <.H                         ",
"                                                                      . . h S R ~ <.-.= 2.-.+ e                     ",
"                                                                          M -.1.:.-.T = ;._ 4 ;.b                   ",
"                                                                            . O * : z U *.z Q 5.U .                 ",
"                                                                                2 ~ <.2.Y + <.2.v                   ",
"                                                                                  % Q R b -.6.' - p                 ",
"                                                                                      . T 1.,.v q T ( / T Y         ",
"                                                                                          b k     G M F G Y / T     ",
"                                                                                                  G e       e E T   ",
"                                                                                                    !         * W ^ ",
"                                                                                                    T ) .     . S L ",
"                                                                                                      ' ) 1 . C ) J ",
"                                                                                                      7 -.,.;.;.Q   ",
"                                                                                                          K L p     "
};
