/* XPM */
static char *XoFTZGT1692259050102[] = {
/* columns rows colors chars-per-pixel */
"61 61 196 2 ",
"   c None",
".  c #C50000",
"X  c #CA0000",
"o  c #C60A01",
"O  c #C8080B",
"+  c #D10E00",
"@  c #D30901",
"#  c #C61A0C",
"$  c #C8190D",
"%  c #C7140A",
"&  c #D11100",
"*  c #D01D00",
"=  c #D6160C",
"-  c #C60016",
";  c #C80E14",
":  c #C81115",
">  c #CA1B12",
",  c #C91C1D",
"<  c #C71519",
"1  c #DB1D19",
"2  c #DA1914",
"3  c #D22400",
"4  c #D1280F",
"5  c #CF2315",
"6  c #CB241C",
"7  c #CE2819",
"8  c #CF2817",
"9  c #D12911",
"0  c #DD231C",
"q  c #D12416",
"w  c #C81E24",
"e  c #C92222",
"r  c #C72B22",
"t  c #CB2C25",
"y  c #C9272B",
"u  c #CC2E2D",
"i  c #D62A27",
"p  c #C6332C",
"a  c #CC312D",
"s  c #C8352A",
"d  c #D2332C",
"f  c #CD2E31",
"g  c #CA3334",
"h  c #C93A34",
"j  c #C7343B",
"k  c #CB343A",
"l  c #CC3B3D",
"z  c #C7383C",
"x  c #D53532",
"c  c #DC3333",
"v  c #DE3539",
"b  c #DC3D3B",
"n  c #D03C3E",
"m  c #E3393A",
"M  c #C9423A",
"N  c #D0423E",
"B  c #B93955",
"V  c #B72E52",
"C  c #A1336A",
"Z  c #C22E40",
"A  c #CB3D43",
"S  c #C23443",
"D  c #E03C40",
"F  c #9C4F7D",
"G  c #984179",
"H  c #A84771",
"J  c #A44B76",
"K  c #A24D79",
"L  c #A74771",
"P  c #CC4243",
"I  c #CB4945",
"U  c #CD4B4A",
"Y  c #D24748",
"T  c #CC534E",
"R  c #CC5452",
"E  c #CD5957",
"W  c #CE5C5B",
"Q  c #CD5758",
"!  c #D75E5D",
"~  c #D4524E",
"^  c #E24846",
"/  c #E1524F",
"(  c #E25552",
")  c #E95D5A",
"_  c #CE625E",
"`  c #C85A62",
"'  c #D15E60",
"]  c #CE6461",
"[  c #CE6866",
"{  c #CF6A69",
"}  c #D16869",
"|  c #D1706E",
" . c #D37373",
".. c #D57778",
"X. c #D57D7C",
"o. c #E36564",
"O. c #E57876",
"+. c #D5807E",
"@. c #0054AF",
"#. c #0055B1",
"$. c #005CB2",
"%. c #0064B4",
"&. c #016BB7",
"*. c #006CBA",
"=. c #0062B8",
"-. c #1669B6",
";. c #0273BA",
":. c #0A72B9",
">. c #0879BE",
",. c #1E71B7",
"<. c #1373BA",
"1. c #1B73B9",
"2. c #1179BF",
"3. c #1471B7",
"4. c #276BB7",
"5. c #2171B7",
"6. c #2E71B6",
"7. c #2175BA",
"8. c #2378BB",
"9. c #2C79BC",
"0. c #2A75B9",
"q. c #3173B9",
"w. c #3278BA",
"e. c #795E99",
"r. c #7A609A",
"t. c #556CAF",
"y. c #437DBC",
"u. c #4674B9",
"i. c #5A72B1",
"p. c #6E65A3",
"a. c #6668A8",
"s. c #6A6AA8",
"d. c #7166A4",
"f. c #7568A4",
"g. c #637CBC",
"h. c #0077C0",
"j. c #0079C2",
"k. c #8F588E",
"l. c #995382",
"z. c #817DAF",
"x. c #5483BF",
"c. c #4F84BE",
"v. c #6182BE",
"b. c #7087BF",
"n. c #5F87C5",
"m. c #638AC2",
"M. c #728EC3",
"N. c #6B93C5",
"B. c #7797C8",
"V. c #8E81AE",
"C. c #D68684",
"Z. c #D88887",
"A. c #D98D8D",
"S. c #D78887",
"D. c #DB9393",
"F. c #DD9D9D",
"G. c #DB9897",
"H. c #E18C8B",
"J. c #E89A99",
"K. c #DEA5A5",
"L. c #E0A5A6",
"P. c #E1ABAB",
"I. c #E1A7A9",
"U. c #E1B0AF",
"Y. c #E3B3B3",
"T. c #E5B7B8",
"R. c #859ECA",
"E. c #8EAAD0",
"W. c #95ADD2",
"Q. c #94ABD0",
"!. c #A0B4D5",
"~. c #B2C2DC",
"^. c #BEC8E0",
"/. c #BBD5EA",
"(. c #EDCDCE",
"). c #EAC0C0",
"_. c #F1DBDB",
"`. c #CDDAEA",
"'. c #C9D4E6",
"]. c #D4DCEA",
"[. c #C1CDE2",
"{. c #DEE5EF",
"}. c #DEEAF3",
"|. c #F4E3E3",
" X c #F6E9E9",
".X c #F9EEEE",
"XX c #F9F0EF",
"oX c #E1E7F0",
"OX c #E6EDF4",
"+X c #EEF2F7",
"@X c #EFF3F8",
"#X c #FAF2F2",
"$X c #F3F6FA",
"%X c #FFFEFE",
"&X c #FEFEFE",
"*X c #F7F9FB",
/* pixels */
"                                                                                                                          ",
"                                                                                                                          ",
"                                                R m c b b b b b b b c D h                                                 ",
"                                      W s Y m b e $ $ . . . . . . o # $ x b m N . W                                       ",
"                                  W t ^ x , . . . k | A.K.Y.Y.Y.K.A.| k . . . e b ^ t W                                   ",
"                              ..p x n . . h ..Y._.XX&X&X%X%X%X%X%X&X&X.X_.Y...h . . n x g ..                              ",
"                            I = Y : . W L.|.%X%X%X%X%X%X%X%X%X%X%X%X%X%X%X%X%X|.L.W . : Y X _                             ",
"                        W ) e P . E Y..X%X%X%X&X&X&X%X%X%X%X%X%X%X%X%X&X&X&X%X%X%X.XY.Q . P < ( '                         ",
"                      t 0 g g . F. X%X%X%X&X%X%X%X%X%X#X X|._.|. X#X%X%X%X%X%X&X%X%X%X XF.. g g 0 t                       ",
"                    W 2 l X I (.%X%X%X%X%X%X%X#X(.I.Z.| ] R U R ] | Z.I.(.#X%X%X%X%X%X%X%X(.I X l 2 _                     ",
"                  { = A .  .|.%X%X&X%X%X%X|.F.Q p . . . : , e , : . . . p Q F.|.%X%X%X&X%X%X|. .. A 2 ]                   ",
"                T @ A . +.#X%X%X%X%X%X|.D.r . - u t 9 8 t f y f t 8 9 t u - . r D.|.%X%X%X%X%X#X+.. A 1 s                 ",
"              ' 1 l . X.#X%X%X%X%X*XT.t . j a * y B J k.e.f.z.f.e.k.J B y * a j . t T.*X%X%X%X%X#XX.. l 0 '               ",
"            I./ g X  .#X%X%X%X%X XC.. z k + Z F p.6.;.j.*.n./.n.*.j.;.6.p.F Z & k z . C. X%X%X%X%X#X .X g ( I.            ",
"            O.O g I |.%X%X%X%X|.{ . A 5 , l.t.;.;.<.,.w.$.R.%XR.$.w.,.<.;.;.t.l., 5 A . { |.%X%X%X%X|.I g ; O.            ",
"          ... P . (.%X%X%X%X|.E . A & B a.;.;.5.,.3.:.7.$.~.%X~.$.7.:.3.,.5.;.;.a.B & A . E |.%X%X%X%X(.. P . ..          ",
"          ~ P . F.%X%X%X%X X[ . A & L q.;.,.1.:.;.;.<.*.u.{.%X{.u.*.:.;.;.:.1.,.;.q.H & A . [  X%X%X%X%XF.. P I           ",
"        } d ; E  X%X&X%X&XC.. A & K ;.<.,.;.;.;.;.;.1.%.B.%X%X%XB.%.1.;.;.;.;.;.,.<.;.K & A . C.&X%X&X%X XE : d [         ",
"        T f . Y.%X%X%X%XT.. A & H ;.1.<.;.;.;.;.;.;.7.$.~.%X*X%X~.$.7.;.;.;.;.;.;.3.1.;.H & A . T.%X%X%X%XY.. g T         ",
"      P ^ X W .X%X%X%X|.t z 5 B q.<.3.;.;.;.;.;.;.:.;.-.oX%X&X%XoX-.;.;.;.;.;.;.;.;.3.<.q.B 5 z t |.%X%X%X.XW X ^ I       ",
"      ] , . L.%X%X%X%XD.. k , a.;.1.;.;.;.;.;.;.;.1.%.N.%X%X%X%X%XN.%.1.;.;.;.;.;.;.;.,.;.a., k . D.%X%X%X%XL.. < ]       ",
"      ) % h |.%X&X%X|.r j + l.;.1.;.;.;.;.;.;.;.;.7.$.~.%X%X%X%X%X~.$.8.;.;.;.;.;.;.;.;.1.;.l.+ j r |.%X&X%X|.h % )       ",
"      i X ..%X%X%X%XF.. u S i.>.0.1.1.7.7.7.7.7.7.9.&.oX%X%X%X%X%XoX&.9.8.7.7.7.7.7.7.8.0.>.i.S u . F.%X%X%X%X..X i M     ",
"    C.O % Y.%X&X%X#XE - 3 G =.%.%.%.%.%.%.%.%.%.&.#.m.*X%X%X%X%X%X*Xm.#.&.%.%.%.%.%.%.%.%.%.=.G 3 - E #X%X%X%XY.# . H.    ",
"    o.< . _.%X&X%X(.p u w V.B.b.M.M.M.M.M.M.M.M.B.g.^.%X%X%X%X%X%X%X^.g.B.M.M.M.M.M.M.M.M.b.B.V.w a p (.%X&X%X_.. , o.    ",
"    v > l #X%X&X%XI.. d V N.}.*X+X+X+X@X@X@X+X@X@X+X*X%X%X%X%X%X%X%X*X+X@X+X+X@X@X@X@X@X+X*X}.N.V d . I.%X&X%X#Xl $ v     ",
"    c #  .&X%X%X%XZ.. 4 K *.v.'.%X%X%X%X%X%X%X%X%X%X%X%X%X%X%X%X%X%X%X%X%X%X%X%X%X%X%X%X%X'.v.*.K 9 . Z.%X%X%X&X .% c     ",
"    b o A.&X%X%X#X| . 8 k.j.%.$.!.*X%X%X%X%X%X%X%X%X%X%X%X%X%X%X%X%X%X%X%X%X%X%X%X%X%X*X!.$.%.j.k.8 . | #X%X%X&XA.o b     ",
"  C.d . K.%X%X%X X] , t r.h.0.1.$.N.oX%X%X%X%X%X%X%X%X%X%X%X%X%X%X%X%X%X%X%X%X%X%X%XoXN.$.1.0.h.r.t : ]  X%X%X%XK.. x     ",
"  D.% . U.%X%X%X|.R e f d.;.,.;.9.%.4.[.%X%X%X%X%X%X%X%X%X%X%X%X%X%X%X%X%X%X%X%X%X[.4.%.9.;.,.;.d.f , R |.%X%X%XP.. t S.  ",
"  G.o . Y.%X%X%X_.U e f d.;.,.;.;.8.1.$.W.@X%X%X%X%X%X%X%X%X%X%X%X%X%X%X%X%X%X+XW.$.1.8.;.;.,.;.d.f e U _.%X&X%XY.. t C.  ",
"  F.o . U.%X&X%X|.R e f d.;.,.;.:.;.<.w.$.m.].%X%X%X%X%X%X%X%X%X%X%X%X%X%X%X].m.$.w.<.;.:.;.,.;.d.f , R |.%X%X%XP.. d C.  ",
"  F.o o K.%X%X%X X] , t r.h.,.;.;.;.;.:.9.%.-.~.%X%X%X%X%X%X%X%X%X%X%X%X%X~.-.%.9.:.;.;.;.;.,.h.r.t : ]  X%X%X%XK.. b     ",
"    x % A.&X%X%X#X| . 8 k.h.5.;.;.;.;.;.;.w.$.E.%X%X%X%X%X%X%X%X%X%X%X%X%XE.$.9.;.;.;.;.;.;.5.h.k.8 . | #X%X%X&XA.. b     ",
"    c %  .&X%X%X%XZ.. 4 J ;.,.:.;.;.;.;.:.3.4.`.%X%X%X%X%X%X%X%X%X%X%X%X%X`.4.3.;.;.;.;.;.:.,.;.J 9 . Z.%X%X%X&X .% c     ",
"    v > l #X%X&X%XI.. t B 6.<.3.;.;.;.;.<.&.x.$X%X%X%X%X%X%X%X%X%X%X%X%X%X$Xx.&.<.;.;.;.;.3.<.6.B t . I.%X&X%X#Xl $ v     ",
"    o., . _.%X&X%X(.p u y p.;.,.;.;.;.;.1.$.W.%X%X%X%X%X%X%X%X%X%X%X%X%X%X%XW.$.7.;.;.;.;.,.;.p.y u p (.%X&X%X_.. , o.    ",
"    J.. # Y.%X&X%X#XE - * F ;.5.:.;.;.;.1.$.`.%X%X%X%X%X%X*X].*X%X%X%X%X%X%X`.$.1.;.;.;.:.5.;.F * - E #X%X&X%XY.# . H.    ",
"    G.X % ..%X%X%X%XF.. u Z t.;.1.;.;.<.&.y.$X%X%X%X%X%X$XE.$.E.$X%X%X%X%X%X$Xy.&.<.;.;.1.;.t.Z a . F.%X%X%X%X..X i M     ",
"      / > h |.%X&X%X|.r j + l.;.,.:.;.8.$.W.%X%X%X%X%X].x.$.<.$.x.].%X%X%X%X%XW.$.8.;.:.1.;.l.& j r |.%X&X%X|.h ; )       ",
"      H.. . L.%X%X%X%XD.. k , a.;.,.;.8.$.].%X*X%X*X~.%.&.7.;.7.&.%.~.*X%X*X%X].$.8.;.,.;.a., k . D.%X%X%X%XL.. < ]       ",
"       .q O W .X%X%X%X|.t z 5 B q.:.7.&.y.+X%X%XOXR.#.1.1.;.:.;.1.1.#.R.OX%X%X@Xy.&.7.:.q.B 5 z t |.%X%X%X.XW . ^ R       ",
"      ).O.w . Y.%X%X%X%XT.. A & H ;.9.$.Q.&X%X'.y.$.w.:.;.;.;.;.;.:.w.$.y.'.%X&XQ.$.w.;.H & A . T.%X%X%X%XY.. l h         ",
"        | d : E  X%X&X%X&XC.. A + K 2.#.].%X!.%.&.9.;.;.;.;.;.;.;.;.;.9.&.%.!.%X].$.2.K + A . C.&X%X&X%X XE : x W         ",
"        (.! A . F.%X%X%X%X X[ . A 3 C c.`.B.@.5.1.;.;.;.;.;.;.;.;.;.;.;.1.5.@.B.`.c.C 3 A . [  X%X%X%X%XF.. Y h           ",
"          X.. P . (.%X%X%X%X|.E . A X ` s.*.2.5.,.3.:.;.;.;.;.;.;.;.:.3.,.5.2.*.s.` X A . E |.%X%X%X%X(.. P X ..          ",
"            O.O g I |.%X%X%X%X|.{ . P > 6 l.t.;.;.<.5.5.,.,.,.,.,.5.,.<.;.;.t.l.6 > P . { |.%X%X%X%X|.I g < ]             ",
"            I./ g X  .#X%X%X%X%X XC.. l k @ Z F p.6.;.h.h.;.;.;.h.h.;.6.p.F Z @ k l . C. X%X%X%X%X#X .X g (               ",
"              ' 0 l . X.#X%X%X%X%X*XT.t . j u * y B J k.r.d.d.d.r.k.J B y * u j . t T.&X%X%X%X%X#XX.. l 0 '               ",
"                r 1 A . +.#X%X%X%X%X%X|.D.r . - u t 4 8 t f f f t 8 9 t u - . r D.|.%X%X%X%X%X#X+.. A 1 7                 ",
"                  I i A .  .|.%X%X&X%X%X%X|.F.Q p . . . , e e e , . . . p Q F.|.%X%X%X&X%X%X|. .. A i M                   ",
"                    h 1 l X I (.%X%X%X%X%X%X%X#X(.I.S.| ] R U R ] | S.I.(.#X%X%X%X%X%X%X%X(.I X l 1 M                     ",
"                      7 0 g g . F. X%X%X%X&X%X%X%X%X%X#X X|._.|. X#X%X%X%X%X%X&X%X%X%X XF.. g g 0 7                       ",
"                        ' ( : P . E Y..X%X%X%X&X&X&X%X%X%X%X%X%X%X%X%X&X&X%X%X%X%X.XY.Q . P < ( '                         ",
"                            } X Y ; . W L.|.%X%X%X%X%X%X%X%X%X%X%X%X%X%X%X%X%X|.L.W . ; Y X ]                             ",
"                              ..h x n . . h ..Y._..X&X&X%X%X%X%X%X&X&X.X_.Y...h . . l x h ..                              ",
"                                  W s ^ < : X # . k | A.K.P.Y.P.K.A.| k . # X : , ^ h W                                   ",
"                                      R ] ) i . < > # o . . . . . o # $ < . i ) ] R                                       ",
"                                            M H.o.v c b b d t d b b c v o.H.M                                             ",
"                                                          C.S.C.                                                          ",
"                                                                                                                          "
};
