/* XPM */
static char *cd6e5e956b5640a8ff04a4c98c32ba7aZXH22C0fRtlwo2K8[] = {
/* columns rows colors chars-per-pixel */
"38 54 236 2 ",
"   c None",
".  c #000101",
"X  c #040705",
"o  c #180207",
"O  c #0C120B",
"+  c #0E1B0C",
"@  c #011509",
"#  c #12160B",
"$  c #131B0D",
"%  c #19140A",
"&  c #131B11",
"*  c #191712",
"=  c #070F15",
"-  c #3A0200",
";  c #231907",
":  c #3B1708",
">  c #2C1515",
",  c #08240E",
"<  c #14250E",
"1  c #023B05",
"2  c #092612",
"3  c #152411",
"4  c #1C2412",
"5  c #152B14",
"6  c #1C2C15",
"7  c #1B251B",
"8  c #033513",
"9  c #163116",
"0  c #1C3216",
"q  c #1B3319",
"w  c #153C1B",
"e  c #1B3B1C",
"r  c #153917",
"t  c #1A3F00",
"y  c #232514",
"u  c #232D16",
"i  c #2C2C1A",
"p  c #292A17",
"a  c #342B1A",
"s  c #342A15",
"d  c #223316",
"f  c #223B17",
"g  c #223419",
"h  c #2C331A",
"j  c #243C1A",
"k  c #2A3D1B",
"l  c #2C3017",
"z  c #343D1E",
"x  c #3C3C1D",
"c  c #353319",
"v  c #2C2F0A",
"b  c #10322A",
"n  c #273B24",
"m  c #3A3825",
"M  c #30352E",
"N  c #450502",
"B  c #441E0B",
"V  c #631800",
"C  c #452A18",
"Z  c #47371B",
"A  c #482E09",
"S  c #622F13",
"D  c #4B3E22",
"F  c #423925",
"G  c #413B35",
"H  c #5D3823",
"J  c #14421D",
"K  c #1A421E",
"L  c #1C4818",
"P  c #094D16",
"I  c #2A5705",
"U  c #2A441C",
"Y  c #2A4A1E",
"T  c #25451B",
"R  c #34451E",
"E  c #38471E",
"W  c #27541F",
"Q  c #30531F",
"!  c #20641F",
"~  c #1B4922",
"^  c #1E5328",
"/  c #254824",
"(  c #374725",
")  c #2C5422",
"_  c #2C5D24",
"`  c #245329",
"'  c #265726",
"]  c #325522",
"[  c #345D24",
"{  c #375827",
"}  c #1E7729",
"|  c #27622D",
" . c #2C662B",
".. c #3B6429",
"X. c #366B29",
"o. c #3B6B2A",
"O. c #346728",
"+. c #33722B",
"@. c #3A712D",
"#. c #3E7A2E",
"$. c #2C6931",
"%. c #3A6731",
"&. c #377732",
"*. c #54461D",
"=. c #454F17",
"-. c #7B5908",
";. c #4D4423",
":. c #49452A",
">. c #5A4C26",
",. c #594728",
"<. c #4A5725",
"1. c #565629",
"2. c #464833",
"3. c #564C32",
"4. c #554534",
"5. c #5C5133",
"6. c #585537",
"7. c #624C2B",
"8. c #654A26",
"9. c #66572B",
"0. c #735A2F",
"q. c #7A542B",
"w. c #655638",
"e. c #745E33",
"r. c #6C4E33",
"t. c #496627",
"y. c #56682C",
"u. c #46722F",
"i. c #497934",
"p. c #547233",
"a. c #696734",
"s. c #746231",
"d. c #776538",
"f. c #6A7C3C",
"g. c #777438",
"h. c #60662D",
"j. c #4F751A",
"k. c #5B5747",
"l. c #504A45",
"z. c #685D4B",
"x. c #666447",
"c. c #746946",
"v. c #7A784C",
"b. c #6A6654",
"n. c #746A57",
"m. c #767256",
"M. c #726F64",
"N. c #803C00",
"B. c #8E5417",
"V. c #B06C17",
"C. c #866836",
"Z. c #84753B",
"A. c #87793E",
"S. c #906A32",
"D. c #A3773F",
"F. c #8A6D4B",
"G. c #8D7848",
"H. c #857954",
"J. c #987553",
"K. c #927452",
"L. c #A27848",
"P. c #3C8733",
"I. c #3D8832",
"U. c #458635",
"Y. c #4A983A",
"T. c #768833",
"R. c #4BA43E",
"E. c #5E8841",
"W. c #7C8C53",
"Q. c #54B746",
"!. c #52A641",
"~. c #6FB34B",
"^. c #768F62",
"/. c #5AC64B",
"(. c #7DCF5B",
"). c #8C8042",
"_. c #88875A",
"`. c #95885B",
"'. c #958E54",
"]. c #B98448",
"[. c #AD8F5A",
"{. c #8DA55F",
"}. c #B4AE5B",
"|. c #858366",
" X c #9D9878",
".X c #949469",
"XX c #A79564",
"oX c #B39567",
"OX c #A89A72",
"+X c #B59A7B",
"@X c #99B263",
"#X c #BAAB77",
"$X c #ADAB71",
"%X c #CA9554",
"&X c #DFAB5C",
"*X c #E2AB58",
"=X c #C1A267",
"-X c #D9AB68",
";X c #C6A57D",
":X c #D8B77A",
">X c #C4B67A",
",X c #E4B574",
"<X c #86CA5B",
"1X c #80D55D",
"2X c #88D463",
"3X c #93CA69",
"4X c #BBCB68",
"5X c #83E564",
"6X c #E7C07A",
"7X c #9F9783",
"8X c #A49B85",
"9X c #BAA587",
"0X c #B5AE8E",
"qX c #CBBC80",
"wX c #CCB790",
"eX c #C4B4A5",
"rX c #B7C88A",
"tX c #CDC795",
"yX c #D9C39C",
"uX c #D7C48A",
"iX c #E9CC8C",
"pX c #CBC1AA",
"aX c #D5CAA9",
"sX c #D9C6B1",
"dX c #E7D4A6",
"fX c #EBDAB8",
"gX c #F1DCB7",
"hX c #F8DEA6",
"jX c #F1E0B8",
"kX c #ECDDC6",
"lX c #E1D8D2",
"zX c #F2E6C2",
"xX c #FFF4C8",
"cX c #F0ECD9",
"vX c #F3EFE2",
"bX c #FBF9E5",
/* pixels */
"                                                                            ",
"                        cX                bX                                ",
"                      bX                gXbX                                ",
"                      zX                jXvX                                ",
"                      iX                dXcX                                ",
"                      6X6X            lXuXdX                                ",
"                      %X6X        kXbXgXD.hX                                ",
"                        ,X      yXxXxXuXN.,XwX                              ",
"                        B.eX  oX%X&X,X[.N V.;X                              ",
"                        [.n.eX:X:X*X*XD.. V.wX                              ",
"                          [.e.>XiXuX,Xz.- L.qX                              ",
"                            [.: H c.].S N oXwXwX#X#X    qX                  ",
"                                B V L.%XN 9X9Xz.`.  $X`.H.    >X            ",
"                                H H F.;X9XkXJ.o 3.`.XXXX#XXXc.H.m.          ",
"                                  F.K.sXkX+XB.a O m x.`.H.l..     2.        ",
"                                    B F.9X[.S.. > X + c.9XM..               ",
"                                    a.w.;XJ.A , 3 h * 5.d.. _.              ",
"                                  c.( :.w.3 *.8.m 3 a A . . T.4X            ",
"                                k.k.n.7 X g c C.K.4.*.E & X <.4X            ",
"                                OXx.n.k.X z p.-.-.q.1.J 4 3 9 }.            ",
"                            fXwX>.I l.( a m I 9XeX5.Z n 4 7 . W.            ",
"                            [.. 6.k.OXG.H L _.tXrX|.v ( u u . b.0X          ",
"                          =X- 7.0.x.:XoX. {  XT.$XpXP R ( h 4 7 8X          ",
"                            0 8.Z X A * . x.$X@XyXdX XJ m n k . M.          ",
"                            <.: ; h X a s T p.{.(.3XzX|., ( n 7 m |.        ",
"                            t.D l m > y # g p.y.W.yXtXyXM.@ a i O 4.        ",
"                              5.E @ o o o ( P.i.W.j.tX+X`.M.b = M 4.        ",
"                              2.{ ] ` %.t.&.E.u.t._.#Xp.=.J.eXeXeX8Xk.      ",
"                              2.E O.#.{ { { E.t.t.a.j.@.( s C.%X-XqX7X      ",
"                              x.U O i n ` ` $.O.t.1.1.x.U F C . o 7.b.      ",
"                              b.( J $.{ $.&.X.y.<.@ 1.c.L i 4.Z > . .       ",
"              jX              H.5.~ &.&.&.&.t.t.~ X 5.    <.s D s %         ",
"              @XeX           Xm.8 x +.+.&.$.) ~ @ a 3.      L k c X         ",
"        4X3X3X2X@X      yXn.( ^ j ] | $.' ` w 9 X F                         ",
"        rX<X5X5X(.E.^._.e.; q ` T | $.$.| ` e # . :.3.                      ",
"      tXrX<X5X5X1X~.Y.! y C n q ` ` | ' | ` e O @ i :.                      ",
"        OX3X2X5X(.U.i.u.;.D T 6 ~ ` ` ` e e n 2 $ . * m             w.z.w.  ",
"        >X.X{.              X.n n ~ ` ~ ~ ` e 3 3 # X Z 7.@   F w.3.a a p 4 ",
"                            i e 5 K w ~ ^ ~ 9 q 3 & O * 9.;.8 T ( y     , < ",
"                          m 3 3 K e b w w ~ w n 5 & & X a 9.;.            4 ",
"                        2.y + 5 9 ^ e w ~ w + 9 g # $ $ * 8.9.m 5.          ",
"                      m y . 4 q 2 ~ ~ ~ 9 O 5 9 7 $ # 4 4 O 9.8.4 F         ",
"                    m < . $ < d 5 9 e w e w q 9 3 $ $ < y ;.*.e.7.2 z :.5.w.",
"                  4.+ < 5 $ < d 5 9 q q 5 5 5 3 $ $ 3 < y >.0.s.Z.9.P d F 3.",
"              s.7.< r W 5 3 3 e 6 6 q q 6 6 3 3 < 3 6 4 $ >.0.s.C.C.        ",
"          >.Z F 8 W +.X.o 5 3 j 0 6 q 6 0 6 6 6 4 4 6 d < y 1.9.9.s.9.      ",
"        D y $ L +.+.P.O.% q 6 f f 6 6 d g q g 6 d j d g d < 2 p 4 h l       ",
"      p # + Y +.Y.I.P.) 4 g g g U 6 g 0 g g g j f 2 5 f j f u d l c y       ",
"  e.7.. 4 4 W R.R.    ) 0 j j d ) f d g d d k f R 1.<.R W Y f u 0 6 3       ",
"  8.0.2 0 O./.Q.    R.y.s g U g ) ) d k j k f R g.).Z.<.U #.U.l 1.1.9.      ",
"z s 0.E W R.      Z.G.T.U.X.U U U [ y f k k U g.A.A.1.) i.{ ] U ] 1.9.s.s.  ",
"z h ,.y.}     g.A.).f.I.R.P.Y ] U O.@./ k L g.A.g.y.W Q U.Y...] Q W ' O.>.a.",
"l x Z s.    g.Z.A.g.U.W ] ] O.] [ X.u.R.r a.).h.t.t.] O.[ R.Q.U.t.{ ] +.] ;.",
"  Z >.9.s.d.s.C.s.  R.] +.X.X.[ U.#.[ U.{ g.t.1.t.u.] X...@./.Q.!.Y.@.[  .=."
};
