/* XPM */
static char *c9e967cd573646cf8c232d6d89c13123oBzEkx8HVEQ9XQl0[] = {
/* columns rows colors chars-per-pixel */
"47 61 256 2 ",
"   c None",
".  c #000100",
"X  c #00010C",
"o  c #0D0405",
"O  c #170101",
"+  c #00021A",
"@  c #0A1208",
"#  c #280104",
"$  c #360504",
"%  c #2C130E",
"&  c #352A0E",
"*  c #000524",
"=  c #040635",
"-  c #0B192F",
";  c #0D242F",
":  c #302A31",
">  c #2B0031",
",  c #440102",
"<  c #4C0301",
"1  c #5A0604",
"2  c #4C1913",
"3  c #690205",
"4  c #790106",
"5  c #750E15",
"6  c #4F3700",
"7  c #751226",
"8  c #553529",
"9  c #66341A",
"0  c #6E5006",
"q  c #706609",
"w  c #4F4C33",
"e  c #746B30",
"r  c #694717",
"t  c #00034A",
"y  c #2A114C",
"u  c #082E52",
"i  c #000D70",
"p  c #072E6B",
"a  c #2A2C6B",
"s  c #512A66",
"d  c #603656",
"f  c #2E4658",
"g  c #0F4E75",
"h  c #285572",
"j  c #2A607A",
"k  c #6D6A45",
"l  c #4E677E",
"z  c #656E79",
"x  c #5E5756",
"c  c #840102",
"v  c #880308",
"b  c #94020D",
"n  c #970303",
"m  c #880519",
"M  c #980E14",
"N  c #AD0002",
"B  c #A60207",
"V  c #BC0103",
"C  c #BB010B",
"Z  c #B50108",
"A  c #A70714",
"S  c #B70516",
"D  c #B9171D",
"F  c #AD170D",
"G  c #94330D",
"H  c #96142A",
"J  c #BA1524",
"K  c #AF1232",
"L  c #B2342A",
"P  c #9C2A1A",
"I  c #C40001",
"U  c #C4010D",
"Y  c #CA0207",
"T  c #DA0109",
"R  c #C40214",
"E  c #CC0214",
"W  c #CA081C",
"Q  c #D20213",
"!  c #DC0113",
"~  c #D8061B",
"^  c #CB111A",
"/  c #DD1307",
"(  c #E50000",
")  c #E80109",
"_  c #F4000A",
"`  c #E30114",
"'  c #EE0213",
"]  c #E8071C",
"[  c #F7031A",
"{  c #EB1B1C",
"}  c #CA0C23",
"|  c #C71525",
" . c #D31323",
".. c #DA1728",
"X. c #D8122D",
"o. c #EA0C23",
"O. c #FC0C23",
"+. c #F50825",
"@. c #E81629",
"#. c #F8172A",
"$. c #F80034",
"%. c #EB1E31",
"&. c #E51D30",
"*. c #F51D32",
"=. c #FB1A32",
"-. c #C82635",
";. c #D62636",
":. c #CE242A",
">. c #EA2337",
",. c #F42334",
"<. c #FD2236",
"1. c #F32539",
"2. c #FD253B",
"3. c #F92B3B",
"4. c #ED262C",
"5. c #D02615",
"6. c #915409",
"7. c #AF4F04",
"8. c #8B6504",
"9. c #966A00",
"0. c #8E7504",
"q. c #A87005",
"w. c #AF5235",
"e. c #996B2A",
"r. c #9F552D",
"t. c #CE4B03",
"y. c #C8590C",
"u. c #C8712D",
"i. c #D15E21",
"p. c #911E57",
"a. c #CA3048",
"s. c #FD2D42",
"d. c #F32C41",
"f. c #FD3244",
"g. c #FC394D",
"h. c #FA3448",
"j. c #EE2F41",
"k. c #F7124B",
"l. c #955A43",
"z. c #B3574D",
"x. c #86704A",
"c. c #A9745A",
"v. c #BB7656",
"b. c #AD6A4D",
"n. c #907965",
"m. c #9B5D6A",
"M. c #FC4656",
"N. c #F74350",
"B. c #CC7652",
"V. c #FB5466",
"C. c #CB7565",
"Z. c #E76462",
"A. c #B49111",
"S. c #B9A918",
"D. c #AF8F2D",
"F. c #B4AD24",
"G. c #98800C",
"H. c #CA9D19",
"J. c #D5AE0F",
"K. c #C8962B",
"L. c #D8B428",
"P. c #C9AE34",
"I. c #F1AC00",
"U. c #ECD107",
"Y. c #F9EE0E",
"T. c #D5C237",
"R. c #E9DA34",
"E. c #E5CA31",
"W. c #F9ED23",
"Q. c #D8CD0A",
"!. c #908D54",
"~. c #B3984D",
"^. c #B4A74E",
"/. c #BD9178",
"(. c #A7A770",
"). c #DA8B52",
"_. c #EE8B5E",
"`. c #D3B751",
"'. c #C78A69",
"]. c #D58C6C",
"[. c #D39373",
"{. c #E69A78",
"}. c #E78E69",
"|. c #CBB96D",
" X c #F3A57B",
".X c #D6CA4C",
"XX c #EAD253",
"oX c #F4E850",
"OX c #D3C968",
"+X c #E4D86E",
"@X c #F9EC6D",
"#X c #070990",
"$X c #052E8C",
"%X c #0737AA",
"&X c #191599",
"*X c #044988",
"=X c #004991",
"-X c #0D568C",
";X c #305391",
":X c #076595",
">X c #2F6990",
",X c #0055BD",
"<X c #066DB0",
"1X c #3377A8",
"2X c #52768C",
"3X c #567797",
"4X c #003ACC",
"5X c #0051DA",
"6X c #0049CE",
"7X c #0A74DA",
"8X c #006EE9",
"9X c #205AC2",
"0X c #947190",
"qX c #7A818F",
"wX c #508BAD",
"eX c #7795A9",
"rX c #7BA0AE",
"tX c #0A8ECE",
"yX c #3B95CD",
"uX c #068DF4",
"iX c #00A6F7",
"pX c #0DB3FA",
"aX c #4B97C7",
"sX c #4F9ECC",
"dX c #6FACCA",
"fX c #5CA4CF",
"gX c #08D5FD",
"hX c #8D9099",
"jX c #B48E8F",
"kX c #A4B0B6",
"lX c #919AA6",
"zX c #DD9E86",
"xX c #D9A786",
"cX c #D3A996",
"vX c #EAA583",
"bX c #F6B898",
"nX c #F8AE87",
"mX c #F4BFA1",
"MX c #CBBAB5",
"NX c #FDF595",
"BX c #FBC6A5",
"VX c #FDD0B5",
"CX c #FFC19D",
"ZX c #8FC4D9",
"AX c #B1C1C8",
"SX c #90D2F2",
"DX c #A7DBF1",
"FX c #ADE5FA",
"GX c #C9CBCB",
"HX c #D8DADA",
"JX c #FFDDC5",
"KX c #FFE6CA",
"LX c #D2DDE1",
"PX c #D1E9F3",
"IX c #F8FCFD",
"UX c #F1EAE3",
/* pixels */
"                                                                                              ",
"                                                                                              ",
"                                                    GX          GXGX                          ",
"                                                  HXIX    HX    LXHX                          ",
"                                                  HXIXAXkXIXAXlXPXHX                          ",
"                                                  HXIXkXkXHXAXhXGXHX  {.    vX                ",
"                                                    LXMX|.xXxX{.qX    }.  nX{.                ",
"                                                    eXcXBXmXBXcXjX    {.{.].                  ",
"                                                    F.K.zXcXzXB.).{.mXbXbXvXB.{.              ",
"                                              K.W.oXY.XXcXxXC.P.W.!.  [.{. X}.                ",
"                                            L Y.W.W.U.D.zX].D.E.E.r.r.w.G v B.].              ",
"                                            u.H.u.D.9.z.C.P.Q.R.F.m nX}.w.z.B.C.              ",
"                                          P w.R V n K ).L.T.S.Q.8.1 vXvXnXBX'.                ",
"                                          2 5 a.l.p.r.A.A., 6 A.. v.b.nXbXcX[.:.              ",
"                                            + s y f e 6 o wXrXk + v.].[.{.[.B.*.              ",
"                                          _.r.g dXz 6 . wXFXZXj p 6 l., r L E h.              ",
"                                          mXc.ZXPXwXp . rXFXSX<Xu r c.8 c.} -.j.3.            ",
"                                          nXf SXFXyX*Xo >XdXsX;Xi s '.n./.a.-.1.3.            ",
"                                          B.& sXfX<X; t p -X*X$X%X+ b.bX/.} -.3.3.            ",
"                                           Xc.$X;Xi $X$X$X$X7X$XO . c.BXz.S :.d.,.            ",
"                                        vXJXn.6X<Xp = . . 2XdXh . X 8 l.c I :.g.@.            ",
"                                        JXUXv.. lXdXh . l DXDXyXu O = + n U %.3.@.            ",
"                                      _.KXVXu.u DXSX1X. qXSXSXaXh o - % c  .3.3.              ",
"                                      ].{.b.o : wXtXi . X <X<X=Xt u O . c 1.f.#.              ",
"                                    bX}.G X 5 Y > f x w x.q x.k y = . . ^ f.3.]               ",
"                                    JX XCX/.N ( OX+X|.OX.X.XNXNXR.% X 4 *.h.=.                ",
"                          j hXz . {.BX XCX!.B a.(.^.q e 0 q k ^.~.: . D <.3.]                 ",
"                          ].0Xx . m Z.B.l.4 N m.:X=X+ . g wX:X. i *X, %.*.[ ]                 ",
"                        v u.9 . $ # 3 4 I Q N d dXdX-XO >XwX2Xf : =XN <.&.' ]                 ",
"                      3XqXu - . c ^ 4 C ^ n d -XwXwX>Xo 1XwX1Xj . 7 ] 3.:.` @.                ",
"                      z hXl . w [.z.Y 5.W B y h wXh . . >XwX1Xu = T o.1. .o.                  ",
"                      l 2X* . c.[.M Z X.( p.5X%X; ; X @ % . y *XK ( #.,.Q ..                  ",
"                        , X x.zXc.4 ..o.V %X8XuX#X@ t ; = : tX3X_ ..%.#.Q  .                  ",
"                    I &.>.| '.bX[.5.+.F &X8XpXiX&X-Xu < < tXsX/ ' ..%.=.Y D                   ",
"                Y ..f.g.M.$.P v.c.n X.n %XuXgXpX#Xf g V X.=Xa.( .. .,.=.E H                   ",
"            U o.f.M.V.g...M Q ' 3 7 { n 4XiXgXiX&X<X=X( ;.N ! | ~ ..<.#. .1                   ",
"        D E =.M.V.V.d.W 4 :.s.@.c J =.K 5XpXgX8X9XuXp.V K &.J o.^ ,.*.O.@.2                   ",
"      J ~ 1.V.Z.V.@.U $ J h.j.P 5 ;.N.K 5XpXgX7X%X;X4 H @.D ~ o.^ 3.@.#.@.H                   ",
"    | O.O.s.V.N.o.V . b 2.g.-.& F >.g.C 6XiXpX7XX . m 1...V <.J ..<.' #.O.F                   ",
"  J ^     ~ o.+.E o # @.g.j.S v T K ;.a.4XuXiX%X< H d.>.N 1.1.B ,.#.E %.O.^                   ",
"            R ` 3 . A s.g.X.b Q U * 4 p.5XuX7XH n >.3.Z ..f.| R <.o.A 1.~ A                   ",
"              3 . , %.g.1.A b R $ + . u *Xp U B L s.| W <.[ I @.<.! W @.v A D                 ",
"            $ o . A h.h.} 4 S b . $ % . 1 / N 7 s.X.B ,.#.) E ,.#.C } A R Z o.O.S             ",
"          5 $ o . ;.g.%.b 5 ~ , . $ . 7 ,.;.@ +.@.b @.=.! Q  .,.[ A | J o.C s.3.E             ",
"        . O # . 3 j.h. .3 S $.A X @ 5 4.] . c ~ A | =.o.! T ..,.Y S ^ @.! +.h.%.C             ",
"      , 3 $ $ . K h.%.R 4 &.h.+.7.0.:.O.6.0 < 3 | =.+.R ' Q >.*.W >.] C Q s.2.` C             ",
"      E ~ A . # ;.h.o.N S h.M.~ 8.q.O.i.Q.J.6 J f.=.W S ' E ,... .=.B U <.2.] U E ~           ",
"    Q +.[ ~ b J g.1.T n E M.k.t.S.y.( `.XXH.v 3.f.o.A Q ' } 1.J ] A S <.<.W C v ;.<.          ",
"    ] ] #.%.#.s.g.>.Z N ] N.$.7.F.t.u.XXR.9.V ,.*.E b [ ` | %.R n J 2.*.A E b b $.$.Q         ",
"    ` [ o.<.f.f.3.] n I o.<.[ 9.A.F .XoXQ.7.Y #.' N M [ ! -.*.n A =. .n ~ R . F y.t.M         ",
"    Y _ ' +.*.=.+.T N / [ { U 8.P.~.^.S.q Z ( _ ( V ) [ Q ..^ n +.~ S *.&.. 8.L.E.E.H.        ",
"      Y _ _ _ _ _ ) I U       q.oX+Xw .     ) _ T U )    .Q v U W B +.<.5 o 6.L.OXOXK.        ",
"        U ' ) T Y C           A.oXXX0.                    M O S Q 3 m S       8.|.+XP.        ",
"            Z                 G.oXT.                      # X   S <             ~.|.e.        ",
"                              D.XXF.                                            D.|.^.        ",
"                              T.@XF.                                              `.`.        ",
"                              oXE.                                                ).oX        ",
"                            P.oXH.                                                P.NX`.      ",
"                          S.@X.X9.                                                K.|.`.      ",
"                        R.oX@X.XI.                                                7.XXXXP.    ",
"                    A.L.XX+XT.q J.                                                & D.`.`.A.  "
};
