/* XPM */
static char *ddc057ff8ef240debeae60729873342fzZSKKl5oflDoF6Ww[] = {
/* columns rows colors chars-per-pixel */
"78 44 241 2 ",
"   c None",
".  c #020101",
"X  c #0C0C0C",
"o  c #0B0405",
"O  c #12080B",
"+  c #15110E",
"@  c #050518",
"#  c #140E16",
"$  c #141314",
"%  c #1C1B1B",
"&  c #191617",
"*  c #291410",
"=  c #22221F",
"-  c #1A1A33",
";  c #0C1425",
":  c #211E23",
">  c #182434",
",  c #242324",
"<  c #2D2B2C",
"1  c #282726",
"2  c #332B2B",
"3  c #37332D",
"4  c #292B35",
"5  c #322D33",
"6  c #343333",
"7  c #3D3C3D",
"8  c #383636",
"9  c #2C343B",
"0  c #5B0102",
"q  c #5C0D0A",
"w  c #5C120F",
"e  c #69070A",
"r  c #7A0806",
"t  c #6B1A13",
"y  c #78191A",
"u  c #70120E",
"i  c #71241A",
"p  c #7F1B21",
"a  c #4C372D",
"s  c #772B26",
"d  c #5B2D13",
"f  c #42423F",
"g  c #5A483C",
"h  c #775135",
"j  c #162542",
"k  c #252E45",
"l  c #2A3949",
"z  c #363746",
"x  c #363B52",
"c  c #423E45",
"v  c #483F52",
"b  c #3A404A",
"n  c #394655",
"m  c #2D414B",
"M  c #3E4C60",
"N  c #464545",
"B  c #4C4B4B",
"V  c #45464A",
"C  c #554541",
"Z  c #54524D",
"A  c #464858",
"S  c #534B56",
"D  c #5C5B5B",
"F  c #575456",
"G  c #4C5357",
"H  c #6A574A",
"J  c #625D5B",
"K  c #6B5859",
"L  c #755145",
"P  c #68645C",
"I  c #464B68",
"U  c #4C586A",
"Y  c #585965",
"T  c #515771",
"R  c #665C68",
"E  c #775866",
"W  c #586670",
"Q  c #646463",
"!  c #6C6C6C",
"~  c #696767",
"^  c #746A67",
"/  c #7B736B",
"(  c #6A6C76",
")  c #786875",
"_  c #6A7279",
"`  c #747373",
"'  c #7C7B7B",
"]  c #7B7477",
"[  c #880A07",
"{  c #8B140D",
"}  c #891709",
"|  c #95190E",
" . c #890C11",
".. c #950D19",
"X. c #8A1817",
"o. c #941A13",
"O. c #9C1C14",
"+. c #951B1B",
"@. c #9A1918",
"#. c #940C0F",
"$. c #A31C1B",
"%. c #AB1D18",
"&. c #B71E1B",
"*. c #9B251B",
"=. c #87251F",
"-. c #A7271C",
";. c #B5261D",
":. c #A4301F",
">. c #971F24",
",. c #A81D25",
"<. c #BA1E22",
"1. c #A50F23",
"2. c #872A28",
"3. c #992224",
"4. c #99252A",
"5. c #933332",
"6. c #A32322",
"7. c #A82A28",
"8. c #BD2C24",
"9. c #B62725",
"0. c #A73329",
"q. c #B23629",
"w. c #AA2C33",
"e. c #B92D36",
"r. c #A7393A",
"t. c #B73733",
"y. c #C1191D",
"u. c #C2201F",
"i. c #C61E24",
"p. c #C62829",
"a. c #C93938",
"s. c #C93133",
"d. c #8B463B",
"f. c #A25834",
"g. c #CD493C",
"h. c #A93D42",
"j. c #9D3746",
"k. c #964F4D",
"l. c #AB4747",
"z. c #B24A47",
"x. c #AD5357",
"c. c #8B6E50",
"v. c #87786E",
"b. c #857A75",
"n. c #8C7175",
"m. c #B0706E",
"M. c #D36A6B",
"N. c #D77674",
"B. c #C17170",
"V. c #D87166",
"C. c #978879",
"Z. c #82827E",
"A. c #AC8373",
"S. c #757783",
"D. c #6E7A88",
"F. c #BA7E80",
"G. c #8E7D8A",
"H. c #858384",
"J. c #8D8D8D",
"K. c #86868D",
"L. c #98948C",
"P. c #958C96",
"I. c #949394",
"U. c #9B9A9A",
"Y. c #9A9597",
"T. c #938C8B",
"R. c #A5988B",
"E. c #A29894",
"W. c #A58893",
"Q. c #AAA299",
"!. c #B5A79A",
"~. c #9397AA",
"^. c #A19FA2",
"/. c #9BA4AD",
"(. c #A9A8A8",
"). c #B4AAA6",
"_. c #BAB7AB",
"`. c #A9A6B5",
"'. c #B8ADBB",
"]. c #B3B1B3",
"[. c #BCBCBD",
"{. c #BAB7B5",
"}. c #C58B8A",
"|. c #D28F8B",
" X c #EB9B9B",
".X c #E79FA2",
"XX c #C6B8AA",
"oX c #C2BBB3",
"OX c #C7B9B5",
"+X c #D1B4AA",
"@X c #E8AAA9",
"#X c #F8B8B7",
"$X c #F2B8B1",
"%X c #EDA395",
"&X c #BBC1AB",
"*X c #D6C5B9",
"=X c #CCCABC",
"-X c #F8C8BE",
";X c #A9B0C2",
":X c #C6BBC3",
">X c #BBC0CA",
",X c #C3C3C3",
"<X c #CCCBCC",
"1X c #C9C6C6",
"2X c #D5CAC6",
"3X c #D9D5C8",
"4X c #D6CBD8",
"5X c #D4D4D4",
"6X c #DBDBDB",
"7X c #DBD5DB",
"8X c #CECDD2",
"9X c #E3CAC6",
"0X c #E0DDDE",
"qX c #E6DAD3",
"wX c #FBDDD6",
"eX c #F1D5CA",
"rX c #E7E2DB",
"tX c #FBE6DC",
"yX c #D7DBE5",
"uX c #D9CFE1",
"iX c #E2DAE4",
"pX c #E4E3E4",
"aX c #ECEBEB",
"sX c #E9E7E6",
"dX c #F2ECEE",
"fX c #FCEBE2",
"gX c #FFF2E6",
"hX c #FFF5EC",
"jX c #FFFAED",
"kX c #F3F2EB",
"lX c #FEEEF5",
"zX c #F5EAF4",
"xX c #F5F4F4",
"cX c #FBF4F3",
"vX c #F5FAF6",
"bX c #FEFDF5",
"nX c #F3F4FB",
"mX c #FDF5FD",
"MX c #F6FCFD",
"NX c #FDFDFE",
"BX c #ECF1F2",
/* pixels */
"                                                                                                                                                            ",
"                                                                                                                                                            ",
"                                                                                                                                                            ",
"                                                                                                                                                            ",
"                                                                                                  C.R..X XN.m.4.2.i e 0 e y 4.j.m.}.@X                      ",
"                                                                                                A.c.k.t 0 r ..r } } *.:.7.,.1...u e q e =.x. X              ",
"                                                                                            c.f.d d i y 4.4.4.*.:.-.-.| $.,.e.h.r.d.h.w.1. .u u m.+X        ",
"                                                                                          C.h h h h d.d.x.y e *.[ } } | $.,.,.1.3.w.e.e.<.,.w.r.q A.        ",
"                                                                                    !.*XXXL C.+X!./ E H n.#Xm.u f.[ | [ $.,.,.7.@.,.9.<.i.s.a.t.i k.        ",
"                                                                =X&X                  )._.!.*XqXoXY.D R & W.lX}.t z.{ 7.#.#...e.7.$.%.<.i.i.p.t.=.k.        ",
"                                                                kX&X3X                ] R OX:X:XW.E E G.S O 9XzX.Xe h.0. . .>.+.7.%.%.i.i.y.<.t.X.d.        ",
"                                                            (.f   3XR.              Y.D 4X'.Y.W.n.n.G.S v c S.zXlX#Xe r.r.>.4.[ 3.$.%.<.i.y.p.9.{ 2.-X      ",
"                                                      0X5X<X<X~ &X  !.            P.o :X7XOXP.S.G.4 A l x x j yXmXlX Xe z.w.o.[ { O.-.%.;.p.8.9.*.X.s A.    ",
"                                                      <XpXU.Z.` =X  oX      qX2XT.3 n.'.1XP.b.J.l > m n j T ; ~.NXlXcXm.0 0.7.@.[ o.O.O.%.q.8.;.o.h.w       ",
"                                                    0XI.,XI.P Q.jX  OXwXbX9XC o 2 2 +X)./ E.E./ G z n > M I j ~.MXNXjXeXs :.6.a.@.+.o.| | -.8.q.[ 0.p       ",
"                                                    aXP ` Q.~ / *X*X9XgXtXH * * n.+Xa ) W.rXbX).~ z z x - k @ ~.MXxXvXjX%Xu t.-.0.+.{ } | | -.t.N.i k.      ",
"                                                      rXC.2XjXC.!.+X!.*XH o a * !.2XC Z NXNXdXNXNX<XR R R P.T P.mXNXcXcXfXk.w.e.g.q.} } :.o...5.            ",
"                                                          fX*X*XR.c.C.C.g K v.R.2X1 K 0XNXNXNXNXdXcXE K '.`.Y G.mXmXbXbXgXB.X.s.;.;.:.} +.3.4.e wX          ",
"                                                        3XC.C.!.+XT.v.a b.XXb.oXK Y.NXdXNXNXNXNXNXnX) 5 Q S.T ( mXNXNXhXlX#Xr a.&.;.t.:.r @.4.y @X          ",
"                                                  &X=XC.f a =XgXgX*XC.a _.*X^ ^ L.NXzXY.pXzXmXBXBX/.R S l 4 @ D.mXMXNXbXcXwX..h.g.;.q.:.7.[ 4.e }.          ",
"                                                  L./ Z.Z.C.fXjXjXtXfX{.2X)./ ^ cXNX(.(.NXnXnXyXW W G n n U > D.MXnXbXbXjXtXz.,.p.s.:.g.e. .4.e F.          ",
"                                              1X1X&XP ^ =X=XqXjXbXbXNXrXQ.L.J U.aXE.].nXMXnX<XG _ W I n m 9 k D.MXMXMXbXjXtXM.#.u.g.:.:. ...j.e |.          ",
"                                            ).. 3 / H P Q.XX2XbXbXbXbXNXNXsXH.U.<XpXNXNXyXI.D W m n n l k M T ~.MXMXMXbXcXfXN.#.a.%.t.r r r j.0 9X          ",
"                                          I.3 Z Z + . 3 P R.rXbXNXcXNXbXNXmXNXNXMXNXnXyX_ ~ ( m m m 9 n U W ; ;XnXNXMXbXjXgXM.[ q.q.V.%X0 2.p k.            ",
"                                        Q . 7 1 8 1 3 . T._.rXbXNXNXNXNXNXNXNXNXMXMX5XY ( Y V n x @ I I x x @ `.NXmXNXkXjXtXM.6.t.X.-X  |.w s $X            ",
"                                      H.. f 1 1 Z 3 Z . =XjXbXNXNXNXNXNXNXNXNXMXBXyXY ( 9 @ @ @ n `.iXT - I @ `.NXNXdXbXgXtXM.3.u N.      i m.              ",
"                                    I.. b 3 < = D Z.f X {.vXbXjXNXMXNXNXNXNXNXNXNXK.V G < D.I.>XyXMXmXP.@ I @ 4XmXmXNXbXfXwXz.3.t         +X                ",
"                                  U.$ 7 8 % % & 1 f P . 6XbXaXvXNXbXNXMXNXMXNXNXnX_ V B , ].MXMXMXnXzX'.@ S @ :XmXNXcXNXgXeX2.4. X                          ",
"                                ].. < 6 3 < 6 3 f D 6 . sXbXxXNXNXMXNXMXNXMXNXNXpXU 1 b . ^.MXnXMXMXmXuX# v ; uXNXmXvXbXgXeXu N.                            ",
"                              ].< N 6 % X $ Q . &XaX. X 5XvXNXNXNXNXNXNXNXNXNXNXaX: , V 9 (.NXNXMXMXNXzX5 c z `.4XBXbXvXjXm.l.                              ",
"                              B B % < . F 0XU.. BXvXP . pXMXbXvXNXNXNXNXNXNXNXNX<X& < N ! (.NXnXvXvXNXzXR z v : F aXaXvXkXL                                 ",
"                              . c 6 < . [.sXB X 6XMXJ.. ,XvXvXMXNXNXNXNXNXNXNXNX:X. V # 6 NXxXNXMXMXNXNX].@ # 4 5 [.MXbX=X                                  ",
"                              . N , # % F ^.< . rXNXJ.. H.7XNXkXNXxXmXNXNXNXNXNXU.. D . 5XNXNXbXMXxXvXNXNX[.` X . D BXvX                                    ",
"                              . N & 5 < . + . D vXmXJ.X ` 0XNXmXcXMXNXNXNXNXNXsX! 6 . [.vXNXNXmXNXNXNXvXNXNXpXJ.. & ].                                      ",
"                              X 7 , , 8 8 1 X I.xXnX(.. ~ sXNXNXNXbXNXbXNXNXvXNXV X H.vXNXNXaXNXNXNXNXmXNXNXNXxXI.. '                                       ",
"                              . 5 < % % 6 6 X D dXNX<X5 D pXNXmXNXmXNXNXNXNXxX,X% . 6XNXcXnXNXNXNXcXNXNXNXNXNXNXxX` $ <X                                    ",
"                              . 7 , < 6 & 5 1 $ 6XNX0XI.B dXNXxXNXNXBXNXNXmXbXD , X ,XNXvXmXNXNXmXNXNXcXNXNXNXdXmX0X. )                                     ",
"              <X<X            $ 5 + $ < % , , X D xXsX~ ! mXvXNXxXNXNXvXNX6X' 6 8 . 5XvXNXNXNXNXNXNXNXmXNXNXcXmXNX].. 6                                     ",
"            ].N V ' 6 U.    ! . < 6 & & & X & N . ].dX: Y.vXxXNXNXcX,X8X8X! . = X & <XNXxXNXNXvXNXmXNXmXNXdX:X7XOX& + o                                     ",
"          (.F 1 6 X < . 7 V X < 1 < % , 1 < < & o ~ aXV U.pXdXNXNX<XX ! B . N 6 . X 6XsXxXmXNXdXcXdXsXsXsX4Xb.F       .                                     ",
"      J.D . 7 = . . . X % < < % : : 6 N 5 8 N ~ 7 I.0XD I.,XOXnXNXBX            1 F D $ . . $ . . . o . o #                                                 ",
"    N Q . X X 6 ! ` ' Q 7 < 6 7 5 N N 8 & 1 5 B 5 + . S ' ].H.,XNXNX                                                                                        ",
"          I.          1 . . . . o ~     H.' D S F ! D J B ` ` F ` (.                                                                                        ",
"                                                                                                                                                            "
};
